<svg width="96" height="96" viewBox="0 0 96 96" fill="none" xmlns="http://www.w3.org/2000/svg">
<path d="M48 87C40.2865 87 32.7463 84.7127 26.3328 80.4273C19.9193 76.142 14.9205 70.051 11.9687 62.9247C9.0169 55.7984 8.24457 47.9568 9.74939 40.3915C11.2542 32.8262 14.9686 25.8771 20.4229 20.4229C25.8771 14.9686 32.8262 11.2542 40.3915 9.74939C47.9568 8.24457 55.7984 9.0169 62.9247 11.9687C70.051 14.9205 76.142 19.9193 80.4273 26.3328C84.7127 32.7463 87 40.2865 87 48C87 58.3435 82.8911 68.2633 75.5772 75.5772C68.2633 82.8911 58.3435 87 48 87ZM48 15C41.4732 15 35.093 16.9354 29.6662 20.5615C24.2394 24.1876 20.0097 29.3415 17.512 35.3715C15.0143 41.4014 14.3608 48.0366 15.6341 54.438C16.9074 60.8394 20.0504 66.7194 24.6655 71.3345C29.2806 75.9497 35.1607 79.0926 41.562 80.3659C47.9634 81.6392 54.5986 80.9857 60.6286 78.488C66.6585 75.9903 71.8124 71.7607 75.4385 66.3338C79.0646 60.907 81 54.5268 81 48C81 39.2479 77.5232 30.8542 71.3345 24.6655C65.1458 18.4768 56.7522 15 48 15Z" fill="#D2DADD"/>
<path d="M48 51C45.0333 51 42.1332 50.1203 39.6665 48.4721C37.1997 46.8238 35.2771 44.4811 34.1418 41.7403C33.0065 38.9994 32.7094 35.9834 33.2882 33.0737C33.867 30.1639 35.2956 27.4912 37.3934 25.3934C39.4912 23.2956 42.1639 21.867 45.0737 21.2882C47.9834 20.7094 50.9994 21.0065 53.7403 22.1418C56.4812 23.2771 58.8238 25.1997 60.4721 27.6665C62.1203 30.1332 63 33.0333 63 36C63 39.9783 61.4197 43.7936 58.6066 46.6066C55.7936 49.4197 51.9783 51 48 51ZM48 27C46.22 27 44.4799 27.5278 42.9999 28.5168C41.5198 29.5057 40.3663 30.9113 39.6851 32.5559C39.0039 34.2004 38.8257 36.01 39.1729 37.7558C39.5202 39.5016 40.3774 41.1053 41.636 42.364C42.8947 43.6226 44.4984 44.4798 46.2442 44.8271C47.99 45.1743 49.7996 44.9961 51.4442 44.3149C53.0887 43.6337 54.4943 42.4802 55.4832 41.0001C56.4722 39.5201 57 37.78 57 36C57 33.6131 56.0518 31.3239 54.364 29.636C52.6761 27.9482 50.387 27 48 27Z" fill="#D2DADD"/>
<path d="M76.65 72C76.2336 72.0028 75.8212 71.9189 75.439 71.7537C75.0568 71.5884 74.7132 71.3454 74.43 71.04C71.2457 67.5667 67.3752 64.7921 63.0633 62.8918C58.7514 60.9914 54.0921 60.0068 49.38 60H46.62C37.8366 59.9811 29.3906 63.381 23.07 69.48C22.486 69.9619 21.7414 70.2052 20.9856 70.161C20.2297 70.1168 19.5185 69.7885 18.9947 69.2418C18.4708 68.6952 18.173 67.9707 18.161 67.2136C18.149 66.4566 18.4237 65.723 18.93 65.16C26.3576 57.9809 36.29 53.9778 46.62 54H49.38C54.9187 54.0126 60.3949 55.1703 65.4647 57.4006C70.5345 59.6309 75.0883 62.8855 78.84 66.96C79.2364 67.3874 79.4997 67.921 79.5977 68.4957C79.6957 69.0703 79.6242 69.661 79.3919 70.1956C79.1596 70.7302 78.7765 71.1856 78.2896 71.5061C77.8027 71.8265 77.2329 71.9982 76.65 72Z" fill="#D2DADD"/>
</svg>
