<svg width="32" height="32" viewBox="0 0 32 32" fill="none" xmlns="http://www.w3.org/2000/svg">
<g clip-path="url(#clip0_7_430)">
<path d="M16 0C7.16406 0 0 7.16406 0 16C0 24.8359 7.16406 32 16 32C24.8359 32 32 24.8359 32 16C32 7.16406 24.8359 0 16 0ZM16 30C8.28125 30 2 23.7188 2 16C2 8.28125 8.28125 2 16 2C23.7188 2 30 8.28125 30 16C30 23.7188 23.7188 30 16 30ZM20.9726 16.6152C21.3536 17.2598 21.5449 18.0117 21.5449 18.8731C21.5449 20.1953 21.1504 21.2969 20.3633 22.1777C19.5761 23.0606 18.4395 23.5801 16.9531 23.7364V26H15.0586V23.7481C12.5801 23.4942 11.0468 22.0527 10.4551 19.4277L13.3848 18.6641C13.6562 20.3144 14.5547 21.1387 16.0801 21.1387C16.7929 21.1387 17.3203 20.9629 17.6562 20.6094C17.9922 20.2558 18.1601 19.8301 18.1601 19.3301C18.1601 18.8125 17.9921 18.4199 17.6562 18.1542C17.3203 17.8867 16.5723 17.5487 15.4141 17.1386C14.3731 16.7774 13.5586 16.4218 12.9726 16.0664C12.3867 15.7149 11.9101 15.2207 11.5449 14.5859C11.1796 13.9492 10.9961 13.207 10.9961 12.3632C10.9961 11.2558 11.3242 10.2577 11.9766 9.37106C12.6289 8.48631 13.6562 7.94525 15.0586 7.748V6H16.9532V7.74806C19.0704 8.002 20.4415 9.19925 21.0645 11.3418L18.4551 12.4121C17.9454 10.9434 17.1601 10.209 16.0938 10.209C15.5586 10.209 15.1289 10.3731 14.8067 10.7012C14.4824 11.0293 14.3204 11.4278 14.3204 11.8946C14.3204 12.3711 14.4766 12.7364 14.7891 12.9923C15.0997 13.2462 15.7696 13.5606 16.7931 13.9376C17.9181 14.3478 18.8009 14.7364 19.4396 15.1016C20.0801 15.4668 20.5899 15.9727 20.9726 16.6152Z" fill="#D2DADD"/>
</g>
</svg>
