<svg width="32" height="32" viewBox="0 0 32 32" fill="none" xmlns="http://www.w3.org/2000/svg">
<g clip-path="url(#clip0_71_1360)">
<path d="M16 29C13.4288 29 10.9154 28.2376 8.77759 26.8091C6.63975 25.3807 4.97351 23.3503 3.98957 20.9749C3.00563 18.5995 2.74819 15.9856 3.2498 13.4638C3.75141 10.9421 4.98953 8.6257 6.80762 6.80762C8.6257 4.98953 10.9421 3.75141 13.4638 3.2498C15.9856 2.74819 18.5995 3.00563 20.9749 3.98957C23.3503 4.97351 25.3807 6.63975 26.8091 8.77759C28.2376 10.9154 29 13.4288 29 16C29 19.4478 27.6304 22.7544 25.1924 25.1924C22.7544 27.6304 19.4478 29 16 29ZM16 5.00001C13.8244 5.00001 11.6977 5.64514 9.88873 6.85384C8.07979 8.06254 6.66989 9.7805 5.83733 11.7905C5.00477 13.8005 4.78693 16.0122 5.21137 18.146C5.63581 20.2798 6.68345 22.2398 8.22183 23.7782C9.76021 25.3166 11.7202 26.3642 13.854 26.7886C15.9878 27.2131 18.1995 26.9952 20.2095 26.1627C22.2195 25.3301 23.9375 23.9202 25.1462 22.1113C26.3549 20.3023 27 18.1756 27 16C27 13.0826 25.8411 10.2847 23.7782 8.22183C21.7153 6.15893 18.9174 5.00001 16 5.00001Z" fill="#D2DADD"/>
<path d="M16 23C15.7348 23 15.4804 22.8946 15.2929 22.7071C15.1054 22.5196 15 22.2652 15 22V10C15 9.73478 15.1054 9.48043 15.2929 9.29289C15.4804 9.10536 15.7348 9 16 9C16.2652 9 16.5196 9.10536 16.7071 9.29289C16.8946 9.48043 17 9.73478 17 10V22C17 22.2652 16.8946 22.5196 16.7071 22.7071C16.5196 22.8946 16.2652 23 16 23Z" fill="#D2DADD"/>
<path d="M22 17H10C9.73478 17 9.48043 16.8946 9.29289 16.7071C9.10536 16.5196 9 16.2652 9 16C9 15.7348 9.10536 15.4804 9.29289 15.2929C9.48043 15.1054 9.73478 15 10 15H22C22.2652 15 22.5196 15.1054 22.7071 15.2929C22.8946 15.4804 23 15.7348 23 16C23 16.2652 22.8946 16.5196 22.7071 16.7071C22.5196 16.8946 22.2652 17 22 17Z" fill="#D2DADD"/>
</g>
<defs>
<clipPath id="clip0_71_1360">
<rect width="32" height="32" fill="white"/>
</clipPath>
</defs>
</svg>
