<svg width="32" height="32" viewBox="0 0 32 32" fill="none" xmlns="http://www.w3.org/2000/svg">
<path d="M4 28C3.20435 28 2.44129 27.6839 1.87868 27.1213C1.31607 26.5587 1 25.7957 1 25V7C1 6.20435 1.31607 5.44129 1.87868 4.87868C2.44129 4.31607 3.20435 4 4 4H11C11.1469 3.99976 11.2921 4.0319 11.4252 4.09412C11.5582 4.15634 11.676 4.24712 11.77 4.36L14.8 8H27C27.2652 8 27.5196 8.10536 27.7071 8.29289C27.8946 8.48043 28 8.73479 28 9C28 9.26522 27.8946 9.51957 27.7071 9.70711C27.5196 9.89464 27.2652 10 27 10H14.33C14.1848 9.99878 14.0416 9.96594 13.9103 9.90377C13.7791 9.84161 13.6629 9.75159 13.57 9.64L10.53 6H4C3.73478 6 3.48043 6.10536 3.29289 6.29289C3.10536 6.48043 3 6.73478 3 7V25C3 25.2652 3.10536 25.5196 3.29289 25.7071C3.48043 25.8946 3.73478 26 4 26C4.26522 26 4.51957 26.1054 4.70711 26.2929C4.89464 26.4804 5 26.7348 5 27C5 27.2652 4.89464 27.5196 4.70711 27.7071C4.51957 27.8946 4.26522 28 4 28Z" fill="#D2DADD"/>
<path d="M25.38 28H4.00001C3.84899 28.0034 3.69917 27.9725 3.5618 27.9097C3.42442 27.8469 3.30307 27.7537 3.20684 27.6373C3.11061 27.5209 3.042 27.3841 3.00618 27.2374C2.97036 27.0906 2.96825 26.9377 3.00001 26.79L6.00001 12.79C6.0488 12.5626 6.17535 12.3593 6.35787 12.2151C6.54039 12.0709 6.76747 11.9948 7.00001 12H30C30.151 11.9966 30.3009 12.0275 30.4382 12.0903C30.5756 12.1531 30.697 12.2463 30.7932 12.3627C30.8894 12.4791 30.958 12.6159 30.9938 12.7626C31.0297 12.9094 31.0318 13.0623 31 13.21L28.32 25.63C28.1757 26.3021 27.8049 26.9042 27.2697 27.3356C26.7345 27.767 26.0674 28.0016 25.38 28ZM5.24001 26H25.38C25.6126 26.0052 25.8396 25.9291 26.0222 25.7849C26.2047 25.6407 26.3312 25.4374 26.38 25.21L28.76 14H7.76001L5.24001 26Z" fill="#D2DADD"/>
</svg>
