<svg width="64" height="64" viewBox="0 0 64 64" fill="none" xmlns="http://www.w3.org/2000/svg">
<path d="M25.2644 13.3161V20.1307C25.2644 20.5999 25.515 21.0345 25.9217 21.2687L42.5285 30.8563C43.4044 31.3624 43.4044 32.6269 42.5285 33.133L25.9217 42.7206C25.515 42.9556 25.2644 43.3895 25.2644 43.8586V50.6732C25.2644 51.6846 26.3596 52.3173 27.2355 51.8112L59.5872 33.133C60.4631 32.6269 60.4631 31.3624 59.5872 30.8563L27.2355 12.1781C26.3596 11.672 25.2644 12.3047 25.2644 13.3161Z" fill="#D2DADD"/>
<path d="M59.5882 30.8564L27.2357 12.1782C27.0771 12.0862 26.9111 12.0435 26.7452 12.0221L57.9442 30.0347C58.82 30.5408 58.82 31.8053 57.9442 32.3115L25.5924 50.9896C25.5103 51.0373 25.424 51.0652 25.3394 51.0931C25.5924 51.8441 26.4905 52.2418 27.2357 51.8112L59.5874 33.1331C60.4641 32.627 60.4641 31.3625 59.5882 30.8564Z" fill="#D2DADD"/>
<path d="M25.2644 13.3161V20.1307C25.2644 20.5999 25.515 21.0345 25.9217 21.2687L42.5285 30.8563C43.4044 31.3624 43.4044 32.6269 42.5285 33.133L25.9217 42.7206C25.515 42.9556 25.2644 43.3895 25.2644 43.8586V50.6732C25.2644 51.6846 26.3596 52.3173 27.2355 51.8112L59.5872 33.133C60.4631 32.6269 60.4631 31.3624 59.5872 30.8563L27.2355 12.1781C26.3596 11.672 25.2644 12.3047 25.2644 13.3161Z" stroke="#D2DADD" stroke-miterlimit="10"/>
<path d="M3 13.327V20.1416C3 20.6107 3.2506 21.0454 3.65731 21.2795L20.2641 30.8672C21.14 31.3733 21.14 32.6378 20.2641 33.1439L3.65731 42.7315C3.2506 42.9665 3 43.4003 3 43.8695V50.6841C3 51.6955 4.09523 52.3282 4.97109 51.822L37.3228 33.1439C38.1987 32.6378 38.1987 31.3733 37.3228 30.8672L4.97109 12.189C4.09523 11.6829 3 12.3155 3 13.327Z" fill="#D2DADD"/>
<path d="M37.3228 30.867L4.97103 12.1888C4.81246 12.0968 4.64649 12.0541 4.48052 12.0327L35.6795 30.0453C36.5554 30.5515 36.5554 31.816 35.6795 32.3221L3.32777 51.0002C3.24561 51.0479 3.15934 51.0758 3.07471 51.1037C3.32777 51.8547 4.22581 52.2524 4.97103 51.8219L37.3228 33.1437C38.1995 32.6376 38.1995 31.3731 37.3228 30.867Z" fill="#D2DADD"/>
<path d="M3 13.327V20.1416C3 20.6107 3.2506 21.0454 3.65731 21.2795L20.2641 30.8672C21.14 31.3733 21.14 32.6378 20.2641 33.1439L3.65731 42.7315C3.2506 42.9665 3 43.4003 3 43.8695V50.6841C3 51.6955 4.09523 52.3282 4.97109 51.822L37.3228 33.1439C38.1987 32.6378 38.1987 31.3733 37.3228 30.8672L4.97109 12.189C4.09523 11.6829 3 12.3155 3 13.327Z" stroke="#D2DADD" stroke-miterlimit="10"/>
</svg>
