<svg width="72" height="72" viewBox="0 0 72 72" fill="none" xmlns="http://www.w3.org/2000/svg">
<g clip-path="url(#clip0_37_285)">
<path fill-rule="evenodd" clip-rule="evenodd" d="M36 0C55.872 0 72 16.128 72 36C72 55.872 55.872 72 36 72C16.128 72 0 55.872 0 36C0 16.128 16.128 0 36 0ZM54.024 21.648L19.08 21.552L36.552 35.424L54.024 21.648ZM32.424 39.288L17.16 27.288V50.088H54.912V27.768L40.752 39.336C35.952 43.248 37.392 43.176 32.424 39.288ZM17.352 17.184H55.008C58.056 17.184 60.528 19.68 60.528 22.704V49.104C60.528 52.152 58.032 54.624 55.008 54.624H17.352C14.304 54.624 11.832 52.128 11.832 49.104V22.704C11.832 19.656 14.328 17.184 17.352 17.184Z" fill="#D2DADD"/>
</g>
<defs>
<clipPath id="clip0_37_285">
<rect width="72" height="72" fill="white"/>
</clipPath>
</defs>
</svg>
