<svg width="72" height="72" viewBox="0 0 72 72" fill="none" xmlns="http://www.w3.org/2000/svg">
<g clip-path="url(#clip0_37_281)">
<path fill-rule="evenodd" clip-rule="evenodd" d="M35.8927 0C16.045 0 0 16.5 0 36.9128C0 53.2298 10.2806 67.0417 24.5424 71.9303C26.3256 72.2977 26.9787 71.136 26.9787 70.1588C26.9787 69.303 26.9199 66.3698 26.9199 63.3135C16.9354 65.514 14.8562 58.9133 14.8562 58.9133C13.2517 54.6353 10.8742 53.5357 10.8742 53.5357C7.60629 51.2745 11.1122 51.2745 11.1122 51.2745C14.7372 51.519 16.6393 55.0635 16.6393 55.0635C19.8478 60.6855 25.0178 59.097 27.0977 58.119C27.3945 55.7355 28.346 54.0855 29.3562 53.169C21.3928 52.3132 13.0144 49.1355 13.0144 34.9567C13.0144 30.9233 14.4397 27.6233 16.6981 25.0568C16.3418 24.1403 15.0936 20.3505 17.0552 15.2782C17.0552 15.2782 20.0858 14.3003 26.9192 19.0672C29.8448 18.2592 32.8619 17.8482 35.8927 17.8447C38.9233 17.8447 42.0127 18.273 44.8656 19.0672C51.6997 14.3003 54.7303 15.2782 54.7303 15.2782C56.6919 20.3505 55.4429 24.1403 55.0866 25.0568C57.4046 27.6233 58.7711 30.9233 58.7711 34.9567C58.7711 49.1355 50.3927 52.2517 42.3698 53.169C43.6776 54.33 44.806 56.5297 44.806 60.0135C44.806 64.9635 44.7473 68.9362 44.7473 70.158C44.7473 71.136 45.4011 72.2977 47.1835 71.931C61.4454 67.041 71.726 53.2298 71.726 36.9128C71.7847 16.5 55.681 0 35.8927 0Z" fill="#D2DADD"/>
</g>
<defs>
<clipPath id="clip0_37_281">
<rect width="72" height="72" fill="white"/>
</clipPath>
</defs>
</svg>
