<svg width="95" height="95" viewBox="0 0 95 95" fill="none" xmlns="http://www.w3.org/2000/svg">
<path d="M47.5002 52.2984C55.4374 52.2984 62.6347 55.5271 67.8477 60.7401L61.0654 67.5227C57.59 64.0473 52.7915 61.8948 47.5004 61.8948C42.2088 61.8948 37.4106 64.0473 33.9353 67.5227L27.1528 60.7401C32.3654 55.5271 39.5628 52.2984 47.5002 52.2984ZM13.5715 47.1592C22.6342 38.0965 34.6836 33.1055 47.5001 33.1055C60.3166 33.1055 72.366 38.0965 81.4286 47.1592L74.643 53.9448C67.3926 46.6945 57.7531 42.7019 47.5001 42.7019C37.2467 42.7019 27.6074 46.6946 20.3571 53.9448L13.5715 47.1592ZM42.7018 76.2895C42.7018 78.9394 44.8501 81.0877 47.5001 81.0877C50.1499 81.0877 52.2983 78.9394 52.2983 76.2895C52.2983 73.6395 50.1499 71.4912 47.5001 71.4912C44.8501 71.4912 42.7018 73.6395 42.7018 76.2895Z" fill="#D2DADD"/>
</svg>
