<svg width="32" height="32" viewBox="0 0 32 32" fill="none" xmlns="http://www.w3.org/2000/svg">
<g clip-path="url(#clip0_7_436)">
<path d="M5.33331 30.6666H10.6666C11.0203 30.6666 11.3594 30.5261 11.6095 30.2761C11.8595 30.026 12 29.6869 12 29.3333V21.3333C12 20.9797 12.1405 20.6405 12.3905 20.3905C12.6406 20.1404 12.9797 19.9999 13.3333 19.9999H18.6666C19.0203 19.9999 19.3594 20.1404 19.6095 20.3905C19.8595 20.6405 20 20.9797 20 21.3333V29.3333C20 29.6869 20.1405 30.026 20.3905 30.2761C20.6406 30.5261 20.9797 30.6666 21.3333 30.6666H26.6666C27.0203 30.6666 27.3594 30.5261 27.6095 30.2761C27.8595 30.026 28 29.6869 28 29.3333V17.3333H29.0373C29.3083 17.3646 29.5824 17.3113 29.822 17.1808C30.0615 17.0502 30.2549 16.8488 30.3755 16.6041C30.4961 16.3593 30.5381 16.0833 30.4957 15.8138C30.4533 15.5443 30.3286 15.2945 30.1386 15.0986L17.1253 1.81595C16.9788 1.66597 16.8037 1.5468 16.6105 1.46544C16.4172 1.38408 16.2097 1.34216 16 1.34216C15.7903 1.34216 15.5827 1.38408 15.3895 1.46544C15.1962 1.5468 15.0212 1.66597 14.8746 1.81595L1.86131 15.0986C1.67139 15.2945 1.54669 15.5443 1.50429 15.8138C1.46189 16.0833 1.50387 16.3593 1.62448 16.6041C1.74509 16.8488 1.93842 17.0502 2.17798 17.1808C2.41755 17.3113 2.69162 17.3646 2.96265 17.3333H3.99998V29.3333C3.99998 29.6869 4.14045 30.026 4.3905 30.2761C4.64055 30.5261 4.97969 30.6666 5.33331 30.6666Z" stroke="#D2DADD" stroke-width="2"/>
</g>
</svg>
