<?xml version="1.0" encoding="iso-8859-1"?>
<!-- Generator: Adobe Illustrator 19.1.0, SVG Export Plug-In . SVG Version: 6.00 Build 0)  -->
<svg version="1.1" id="Capa_1" xmlns="http://www.w3.org/2000/svg" xmlns:xlink="http://www.w3.org/1999/xlink" x="0px" y="0px"
	 viewBox="0 0 48 48" style="enable-background:new 0 0 48 48;" xml:space="preserve">
<g id="info">
	<g>
		<path d="M23,37h2V18h-2V37z M24,0C10.745,0,0,10.745,0,24c0,13.255,10.745,24,24,24c13.255,0,24-10.745,24-24
			C48,10.745,37.255,0,24,0z M24,46C11.869,46,2,36.131,2,24C2,11.869,11.869,2,24,2c12.131,0,22,9.869,22,22
			C46,36.131,36.131,46,24,46z M24,10c-0.857,0-2,1.209-2,2c0,0.792,1.143,2,2,2c0.857,0,2-1.146,2-2C26,11.146,24.857,10,24,10z"/>
	</g>
</g>
<g>
</g>
<g>
</g>
<g>
</g>
<g>
</g>
<g>
</g>
<g>
</g>
<g>
</g>
<g>
</g>
<g>
</g>
<g>
</g>
<g>
</g>
<g>
</g>
<g>
</g>
<g>
</g>
<g>
</g>
</svg>
