<svg width="96" height="96" viewBox="0 0 96 96" fill="none" xmlns="http://www.w3.org/2000/svg">
<path d="M75 93H21C18.6131 93 16.3239 92.0518 14.636 90.364C12.9482 88.6761 12 86.3869 12 84V51C12 48.6131 12.9482 46.3239 14.636 44.636C16.3239 42.9482 18.6131 42 21 42H75C77.3869 42 79.6761 42.9482 81.364 44.636C83.0518 46.3239 84 48.6131 84 51V84C84 86.3869 83.0518 88.6761 81.364 90.364C79.6761 92.0518 77.3869 93 75 93ZM21 48C20.2044 48 19.4413 48.3161 18.8787 48.8787C18.3161 49.4413 18 50.2044 18 51V84C18 84.7956 18.3161 85.5587 18.8787 86.1213C19.4413 86.6839 20.2044 87 21 87H75C75.7956 87 76.5587 86.6839 77.1213 86.1213C77.6839 85.5587 78 84.7956 78 84V51C78 50.2044 77.6839 49.4413 77.1213 48.8787C76.5587 48.3161 75.7956 48 75 48H21Z" fill="#D2DADD"/>
<path d="M72 48H24C23.2044 48 22.4413 47.6839 21.8787 47.1213C21.3161 46.5587 21 45.7956 21 45V27C21 20.6348 23.5286 14.5303 28.0294 10.0294C32.5303 5.52856 38.6348 3 45 3H51C57.3652 3 63.4697 5.52856 67.9706 10.0294C72.4714 14.5303 75 20.6348 75 27V45C75 45.7956 74.6839 46.5587 74.1213 47.1213C73.5587 47.6839 72.7956 48 72 48ZM27 42H69V27C69 22.2261 67.1036 17.6477 63.7279 14.2721C60.3523 10.8964 55.7739 9 51 9H45C40.2261 9 35.6477 10.8964 32.2721 14.2721C28.8964 17.6477 27 22.2261 27 27V42Z" fill="#D2DADD"/>
<path d="M48 69C46.8133 69 45.6533 68.6481 44.6666 67.9888C43.6799 67.3295 42.9109 66.3925 42.4567 65.2961C42.0026 64.1997 41.8838 62.9933 42.1153 61.8295C42.3468 60.6656 42.9182 59.5965 43.7574 58.7574C44.5965 57.9182 45.6656 57.3468 46.8295 57.1153C47.9933 56.8838 49.1997 57.0026 50.2961 57.4567C51.3925 57.9109 52.3295 58.6799 52.9888 59.6666C53.6481 60.6533 54 61.8133 54 63C54 64.5913 53.3679 66.1174 52.2426 67.2426C51.1174 68.3679 49.5913 69 48 69Z" fill="#D2DADD"/>
<path d="M51 66H45V78H51V66Z" fill="#D2DADD"/>
</svg>
