<?xml version="1.0" encoding="UTF-8"?>
<!DOCTYPE svg PUBLIC "-//W3C//DTD SVG 1.1//EN" "http://www.w3.org/Graphics/SVG/1.1/DTD/svg11.dtd">
<svg xmlns="http://www.w3.org/2000/svg" version="1.1" width="512px" height="512px" style="shape-rendering:geometricPrecision; text-rendering:geometricPrecision; image-rendering:optimizeQuality; fill-rule:evenodd; clip-rule:evenodd" xmlns:xlink="http://www.w3.org/1999/xlink">
<g><path style="opacity:0.997" fill="#1d9438" d="M 214.5,7.5 C 289.834,7.33334 365.167,7.5 440.5,8C 475.714,16.5495 496.547,38.7162 503,74.5C 503.667,195.167 503.667,315.833 503,436.5C 496.543,472.288 475.71,494.454 440.5,503C 368.5,503.667 296.5,503.667 224.5,503C 186.457,495.287 162.291,472.787 152,435.5C 151.333,415.833 151.333,396.167 152,376.5C 158.356,361.242 169.523,356.075 185.5,361C 192.149,364.314 196.649,369.481 199,376.5C 199.333,392.5 199.667,408.5 200,424.5C 203.657,439.826 213.157,449.659 228.5,454C 295.803,455.646 363.136,455.979 430.5,455C 445.574,451.072 453.741,441.238 455,425.5C 455.667,312.167 455.667,198.833 455,85.5C 453.741,69.7617 445.574,59.9284 430.5,56C 360.131,55.0164 289.797,55.3497 219.5,57C 209.73,61.0264 203.563,68.193 201,78.5C 199.762,97.1333 199.096,115.8 199,134.5C 193.543,148.482 183.376,153.982 168.5,151C 160.333,148.167 154.833,142.667 152,134.5C 151.333,114.5 151.333,94.5 152,74.5C 158.642,38.6978 179.476,16.3644 214.5,7.5 Z"/></g>
<g><path style="opacity:0.995" fill="#1d9438" d="M 264.5,151.5 C 272.45,150.414 279.783,151.914 286.5,156C 314.667,184.167 342.833,212.333 371,240.5C 377,250.5 377,260.5 371,270.5C 342.833,298.667 314.667,326.833 286.5,355C 276.5,361 266.5,361 256.5,355C 248.271,347.977 245.437,339.144 248,328.5C 248.806,325.554 250.139,322.888 252,320.5C 265.5,307 279,293.5 292.5,280C 203.167,279.667 113.833,279.333 24.5,279C 9.24159,272.644 4.07492,261.477 9,245.5C 12.3141,238.851 17.4808,234.351 24.5,232C 113.833,231.667 203.167,231.333 292.5,231C 277.271,216.439 262.771,201.273 249,185.5C 244.208,169.427 249.375,158.094 264.5,151.5 Z"/></g>
</svg>
