<svg width="32" height="32" viewBox="0 0 32 32" fill="none" xmlns="http://www.w3.org/2000/svg">
<path d="M19.1739 0C12.0882 0 6.34776 5.74041 6.34776 12.8261C6.34776 15.889 7.41878 18.6971 9.20816 20.9045L0.391837 29.7208C-0.130612 30.2433 -0.130612 31.0857 0.391837 31.6082C0.914286 32.1306 1.75673 32.1306 2.27918 31.6082L11.0955 22.7918C13.3029 24.5812 16.111 25.6522 19.1739 25.6522C26.2596 25.6522 32 19.9118 32 12.8261C32 5.74041 26.2531 0 19.1739 0ZM19.1739 22.9878C13.5641 22.9878 9.01224 18.4359 9.01224 12.8261C9.01224 7.21633 13.5641 2.66449 19.1739 2.66449C24.7837 2.66449 29.3355 7.21633 29.3355 12.8261C29.3355 18.4359 24.7837 22.9878 19.1739 22.9878Z" fill="#D2DADD"/>
</svg>
