<svg width="64" height="64" viewBox="0 0 64 64" fill="none" xmlns="http://www.w3.org/2000/svg">
<path d="M58.8638 3H5.13617C4.03958 3.00131 2.98827 3.44749 2.21287 4.24068C1.43746 5.03386 1.00128 6.10927 1 7.231V56.769C1.00128 57.8907 1.43746 58.9661 2.21287 59.7593C2.98827 60.5525 4.03958 60.9987 5.13617 61H58.8638C59.9604 60.9987 61.0117 60.5525 61.7871 59.7593C62.5625 58.9661 62.9987 57.8907 63 56.769V7.231C62.9987 6.10927 62.5625 5.03386 61.7871 4.24068C61.0117 3.44749 59.9604 3.00131 58.8638 3ZM9 53V11H32.6682H55V30V53H32.6682H9Z" fill="white"/>
</svg>
