<svg width="32" height="32" viewBox="0 0 32 32" fill="none" xmlns="http://www.w3.org/2000/svg">
<path d="M28.75 9.98824V5.25C28.75 4.69765 28.3018 4.24941 27.75 4.24941H21.1247V1C21.1247 0.448236 20.6771 0 20.1253 0H12.6253C12.0729 0 11.6247 0.448236 11.6247 1V4.24941H5C4.44765 4.24941 4 4.69765 4 5.25V9.98824C4 10.54 4.44765 10.9876 5 10.9876H5.28706V31C5.28706 31.5518 5.73471 32 6.28647 32H23.6282C25.7429 32 27.4635 30.28 27.4635 28.1659V10.9882H27.7494C28.3018 10.9882 28.75 10.5406 28.75 9.98824ZM13.6247 2H19.1247V4.24941H13.6247V2ZM25.4641 28.1665C25.4641 29.1776 24.6406 30 23.6288 30H7.28765V10.9882L25.4641 10.9894V28.1665ZM26.7494 8.98824H5.99941V6.25H12.6253H20.1253H26.75L26.7494 8.98824Z" fill="#E03737"/>
<path d="M12.374 14.9995H10.374V26.7495H12.374V14.9995Z" fill="#E03737"/>
<path d="M17.374 14.9995H15.374V26.7495H17.374V14.9995Z" fill="#E03737"/>
<path d="M22.374 14.9995H20.374V26.7495H22.374V14.9995Z" fill="#E03737"/>
</svg>
