<svg width="40" height="40" viewBox="0 0 40 40" fill="none" xmlns="http://www.w3.org/2000/svg">
<path d="M1.66669 19.9999C1.66528 16.718 2.54489 13.4958 4.21371 10.6698C5.88252 7.84384 8.27935 5.51763 11.154 3.93406C14.0286 2.35048 17.2756 1.56759 20.556 1.66713C23.8365 1.76666 27.03 2.74496 29.8034 4.49991L32.155 2.14991C32.3884 1.91659 32.6858 1.75781 33.0095 1.69369C33.3333 1.62957 33.6687 1.66299 33.9734 1.78973C34.2781 1.91647 34.5384 2.13081 34.7211 2.40559C34.9039 2.68038 35.0009 3.00323 35 3.33324V9.99991C35 10.4419 34.8244 10.8659 34.5119 11.1784C34.1993 11.491 33.7754 11.6666 33.3334 11.6666H26.6667C26.3371 11.6665 26.0149 11.5687 25.7409 11.3856C25.4669 11.2024 25.2533 10.9422 25.1272 10.6377C25.0011 10.3332 24.9681 9.99811 25.0324 9.67486C25.0967 9.3516 25.2553 9.05466 25.4884 8.82158L27.3684 6.94157C25.0871 5.6516 22.5074 4.98226 19.8868 5.00031C17.2661 5.01836 14.6959 5.72318 12.4326 7.04447C10.1693 8.36575 8.29197 10.2573 6.98782 12.5305C5.68367 14.8038 4.99828 17.3792 5.00002 19.9999C5.00002 20.4419 4.82443 20.8659 4.51187 21.1784C4.19931 21.491 3.77538 21.6666 3.33336 21.6666C2.89133 21.6666 2.4674 21.491 2.15484 21.1784C1.84228 20.8659 1.66669 20.4419 1.66669 19.9999ZM36.6667 18.3332C36.2247 18.3332 35.8007 18.5088 35.4882 18.8214C35.1756 19.134 35 19.5579 35 19.9999C34.9956 23.9768 33.4138 27.7895 30.6018 30.6016C27.7897 33.4137 23.9769 34.9955 20 34.9999C17.4172 35.0045 14.8778 34.3347 12.6334 33.0566L14.5117 31.1782C14.7447 30.9452 14.9034 30.6482 14.9677 30.325C15.0319 30.0017 14.9989 29.6667 14.8728 29.3622C14.7467 29.0577 14.5331 28.7974 14.2591 28.6142C13.9851 28.4311 13.6629 28.3333 13.3334 28.3332H6.66669C6.22466 28.3332 5.80074 28.5088 5.48818 28.8214C5.17562 29.134 5.00002 29.5579 5.00002 29.9999V36.6666C4.99994 36.9962 5.09759 37.3184 5.28063 37.5925C5.46367 37.8666 5.72388 38.0803 6.02836 38.2066C6.23058 38.2909 6.4476 38.334 6.66669 38.3332C7.10868 38.3331 7.53253 38.1575 7.84502 37.8449L10.1967 35.4999C13.1263 37.3624 16.5285 38.3457 20 38.3332C24.8606 38.3275 29.5204 36.3941 32.9573 32.9572C36.3942 29.5203 38.3276 24.8605 38.3334 19.9999C38.3334 19.5579 38.1578 19.134 37.8452 18.8214C37.5326 18.5088 37.1087 18.3332 36.6667 18.3332Z" fill="#D2DADD"/>
</svg>
