<svg width="40" height="40" viewBox="0 0 40 40" fill="none" xmlns="http://www.w3.org/2000/svg">
<g clip-path="url(#clip0_80_2223)">
<path d="M40 13.6305L38.0361 11.6666L31.6666 18.0361L25.2972 11.6666L23.3333 13.6305L29.7028 20L23.3333 26.368L25.2986 28.3333L31.6666 21.9638L38.0375 28.3333L40 26.3708L33.6305 20L40 13.6305Z" fill="#D2DADD"/>
<path d="M3.33333 0C2.44928 0 1.60143 0.351189 0.976311 0.976311C0.351189 1.60143 1.24538e-08 2.44928 1.24538e-08 3.33333V8.61817C-3.78332e-05 9.056 0.0861808 9.48955 0.253731 9.89406C0.421281 10.2986 0.66688 10.6661 0.9765 10.9757L13.3333 23.3333V36.6667C13.3333 37.5507 13.6845 38.3986 14.3096 39.0237C14.9348 39.6488 15.7826 40 16.6667 40H23.3333C24.2174 40 25.0652 39.6488 25.6904 39.0237C26.3155 38.3986 26.6667 37.5507 26.6667 36.6667V33.3333H23.3333V36.6667H16.6667V21.9515L15.6902 20.9757L3.33333 8.61817V3.33333H36.6667V6.66667H40V3.33333C40 2.44928 39.6488 1.60143 39.0237 0.976311C38.3986 0.351189 37.5507 0 36.6667 0H3.33333Z" fill="#D2DADD"/>
</g>
<defs>
<clipPath id="clip0_80_2223">
<rect width="40" height="40" fill="white"/>
</clipPath>
</defs>
</svg>
