<svg width="64" height="64" viewBox="0 0 64 64" fill="none" xmlns="http://www.w3.org/2000/svg">
<path d="M42.9691 20H4C3.20464 20.0009 2.44211 20.3173 1.8797 20.8797C1.31729 21.4421 1.00093 22.2046 1 23V58.125C1.00093 58.9204 1.31729 59.6829 1.8797 60.2453C2.44211 60.8077 3.20464 61.1241 4 61.125H42.9691C43.7645 61.1241 44.527 60.8077 45.0894 60.2453C45.6518 59.6829 45.9682 58.9204 45.9691 58.125V23C45.9682 22.2046 45.6518 21.4421 45.0894 20.8797C44.527 20.3173 43.7645 20.0009 42.9691 20ZM8.96924 52.875V27.875H23.9692H37.9692V38.875V52.875H23.9692H8.96924Z" fill="white"/>
<path d="M59 4H19C18.2046 4.00093 17.4421 4.31729 16.8797 4.8797C16.3173 5.44211 16.0009 6.20463 16 7V16H24V12H54V38.5H50V46.3929H59C59.7954 46.3919 60.5579 46.0756 61.1203 45.5132C61.6827 44.9508 61.9991 44.1882 62 43.3929V7C61.9991 6.20463 61.6827 5.44211 61.1203 4.8797C60.5579 4.31729 59.7954 4.00093 59 4Z" fill="white"/>
</svg>
