<svg width="36" height="36" viewBox="0 0 36 36" fill="none" xmlns="http://www.w3.org/2000/svg">
<path d="M18 3C19.9698 3 21.9204 3.38799 23.7403 4.14181C25.5601 4.89563 27.2137 6.00052 28.6066 7.3934C29.9995 8.78628 31.1044 10.4399 31.8582 12.2597C32.612 14.0796 33 16.0302 33 18C33 21.9782 31.4196 25.7936 28.6066 28.6066C25.7936 31.4196 21.9782 33 18 33C11.1 33 5.325 28.38 3.54 22.095L9.285 24.465C9.675 26.4 11.4 27.87 13.455 27.87C15.795 27.87 17.7 25.965 17.7 23.625V23.43L22.8 19.785H22.92C26.04 19.785 28.575 17.25 28.575 14.13C28.575 11.01 26.04 8.475 22.92 8.475C19.8 8.475 17.25 11.01 17.25 14.13V14.205L13.695 19.395L13.455 19.38C12.57 19.38 11.745 19.65 11.07 20.115L3 16.8C3.645 9.075 10.095 3 18 3ZM12.42 25.755C13.62 26.25 15 25.695 15.495 24.495C15.99 23.295 15.42 21.93 14.25 21.435L12.33 20.64C13.065 20.37 13.89 20.355 14.67 20.685C15.465 21 16.08 21.615 16.395 22.41C16.725 23.19 16.725 24.06 16.395 24.84C15.75 26.46 13.845 27.24 12.225 26.565C11.475 26.25 10.905 25.68 10.59 25.005L12.42 25.755ZM26.7 14.13C26.7 16.215 25.005 17.91 22.92 17.91C20.85 17.91 19.155 16.215 19.155 14.13C19.153 13.635 19.249 13.1445 19.4376 12.6869C19.6261 12.2292 19.9033 11.8133 20.2533 11.4633C20.6033 11.1133 21.0192 10.8361 21.4769 10.6476C21.9345 10.459 22.425 10.363 22.92 10.365C25.005 10.365 26.7 12.06 26.7 14.13ZM20.1 14.13C20.1 15.69 21.36 16.965 22.935 16.965C24.495 16.965 25.755 15.69 25.755 14.13C25.755 12.57 24.495 11.295 22.935 11.295C21.36 11.295 20.1 12.57 20.1 14.13Z" fill="#D2DADD"/>
</svg>
